Coordinates
version=1
nRows=14
nColumns=63
inDegrees=yes

Units are S.I. units (second, meters, Newtons, ...)
If the header above contains a line with 'inDegrees', this indicates whether rotational values are in degrees (yes) or radians (no).

endheader
time	pelvis_tilt	pelvis_list	pelvis_rotation	pelvis_tx	pelvis_ty	pelvis_tz	hip_flexion_r	hip_adduction_r	hip_rotation_r	knee_angle_r	knee_angle_r_beta	ankle_angle_r	subtalar_angle_r	mtp_angle_r	hip_flexion_l	hip_adduction_l	hip_rotation_l	knee_angle_l	knee_angle_l_beta	ankle_angle_l	subtalar_angle_l	mtp_angle_l	L5_S1_Flex_Ext	L5_S1_Lat_Bending	L5_S1_axial_rotation	L4_L5_Flex_Ext	L4_L5_Lat_Bending	L4_L5_axial_rotation	L3_L4_Flex_Ext	L3_L4_Lat_Bending	L3_L4_axial_rotation	L2_L3_Flex_Ext	L2_L3_Lat_Bending	L2_L3_axial_rotation	L1_L2_Flex_Ext	L1_L2_Lat_Bending	L1_L2_axial_rotation	L1_T12_Flex_Ext	L1_T12_Lat_Bending	L1_T12_axial_rotation	Abs_r3	Abs_r2	Abs_r1	Abs_t1	Abs_t2	neck_flexion	neck_bending	neck_rotation	arm_flex_r	arm_add_r	arm_rot_r	elbow_flex_r	pro_sup_r	wrist_flex_r	wrist_dev_r	arm_flex_l	arm_add_l	arm_rot_l	elbow_flex_l	pro_sup_l	wrist_flex_l	wrist_dev_l
3.727273	-3.199783	-7.298266	103.691111	0.033945	1.032427	0.344459	-7.700813	-1.613146	-9.043497	8.370713	0.146097	28.223515	7.538908	0.000000	-8.447747	1.412057	6.111170	1.105700	0.019298	26.385471	1.420057	0.000000	0.141123	-0.020635	-1.035910	0.262080	-0.027444	-1.100655	0.231851	-0.050172	-1.100655	0.161289	-0.050172	-0.906422	0.131047	-0.042079	-0.841677	0.080638	-0.031963	-0.776933	1.008028	-0.233426	-5.761423	0.000000	0.000000	11.223275	1.904432	12.262677	-11.056987	-17.493925	-8.087016	84.117938	73.658691	-0.745893	8.573214	5.925466	-10.918175	132.066542	5.803135	5.068868	-21.212080	-22.710944
3.745455	-3.050729	-7.586995	103.994763	0.032277	1.032354	0.347194	-7.147305	-1.611231	-9.224407	8.571698	0.149604	28.329197	7.582547	0.000000	-7.947853	1.397288	6.470943	1.121309	0.019571	26.302368	1.298041	0.000000	0.141388	0.010018	-1.052567	0.262572	0.013324	-1.118352	0.232287	0.024358	-1.118352	0.161593	0.024358	-0.920996	0.131293	0.020429	-0.855211	0.080789	0.015518	-0.789425	1.009921	0.113326	-5.854062	0.000000	0.000000	11.584069	1.876579	11.909293	-11.178423	-17.479598	-8.462263	83.407845	74.216181	-0.361623	9.514788	6.188443	-10.963617	133.493661	5.685574	5.748847	-22.839572	-22.622925
3.763636	-2.924170	-7.855874	104.125541	0.031014	1.032304	0.349818	-6.584383	-1.653245	-9.321201	8.822926	0.153989	28.421429	7.680550	0.000000	-7.486113	1.418887	6.630297	1.131850	0.019755	26.221809	1.224077	0.000000	0.138343	0.037218	-1.036040	0.256916	0.049500	-1.100793	0.227283	0.090491	-1.100793	0.158112	0.090491	-0.906535	0.128465	0.075894	-0.841783	0.079049	0.057650	-0.777030	0.988169	0.421014	-5.762145	0.000000	0.000000	11.987361	1.843135	11.524575	-11.294925	-17.442372	-8.798524	82.597693	75.151900	-0.070371	10.541795	6.454711	-11.012044	135.598513	5.458358	6.805113	-24.137430	-22.104570
3.781818	-2.824987	-8.104506	104.138802	0.030056	1.032289	0.352267	-6.038226	-1.728091	-9.357945	9.100385	0.158832	28.485494	7.774286	0.000000	-7.063410	1.465731	6.645095	1.141716	0.019927	26.153361	1.218805	0.000000	0.132620	0.061097	-1.007096	0.246289	0.081259	-1.070040	0.217882	0.148552	-1.070040	0.151572	0.148552	-0.881209	0.123151	0.124589	-0.818266	0.075779	0.094640	-0.755322	0.947295	0.691144	-5.601166	0.000000	0.000000	12.417538	1.811494	11.206470	-11.352640	-17.434958	-8.989220	81.697208	76.226977	0.144113	11.684716	6.674523	-11.060315	137.904448	5.169443	8.275040	-25.093365	-21.149622
3.800000	-2.755516	-8.327876	103.970103	0.029507	1.032338	0.354526	-5.498374	-1.849124	-9.335250	9.420898	0.164426	28.513406	7.911601	0.000000	-6.688062	1.550857	6.416360	1.150770	0.020085	26.075171	1.294983	0.000000	0.123051	0.081552	-0.946140	0.228519	0.108464	-1.005274	0.202161	0.198285	-1.005274	0.140635	0.198285	-0.827873	0.114266	0.166301	-0.768739	0.070312	0.126324	-0.709605	0.878944	0.922532	-5.262149	0.000000	0.000000	12.865174	1.727581	10.837852	-11.376260	-17.428615	-9.117042	80.712773	77.536311	0.281243	12.848109	6.897285	-11.078575	140.816226	4.752345	10.338181	-25.649080	-19.438131
3.818182	-2.714849	-8.538334	103.711192	0.029237	1.032433	0.356560	-4.978640	-1.994988	-9.308463	9.757740	0.170305	28.505865	8.065257	0.000000	-6.344233	1.654413	6.101571	1.160683	0.020258	25.993596	1.385610	0.000000	0.111884	0.098472	-0.882690	0.207780	0.130968	-0.937858	0.183814	0.239425	-0.937858	0.127872	0.239425	-0.772354	0.103895	0.200805	-0.717186	0.063931	0.152533	-0.662017	0.799176	1.113937	-4.909257	0.000000	0.000000	13.301510	1.615181	10.478978	-11.294764	-17.450546	-9.069881	79.570185	78.895476	0.423507	13.977661	7.059884	-11.090401	143.918180	4.226358	12.685823	-26.113243	-17.394975
3.836364	-2.703886	-8.735903	103.366983	0.029248	1.032580	0.358353	-4.481697	-2.161850	-9.264082	10.102199	0.176317	28.462743	8.217013	0.000000	-6.031544	1.777138	5.701001	1.173783	0.020486	25.889656	1.473377	0.000000	0.098631	0.111538	-0.816025	0.183167	0.148346	-0.867027	0.162041	0.271195	-0.867027	0.112725	0.271195	-0.714022	0.091589	0.227449	-0.663021	0.056358	0.172773	-0.612019	0.704510	1.261746	-4.538488	0.000000	0.000000	13.708363	1.460004	10.058101	-11.103845	-17.491996	-8.843709	78.214099	80.318772	0.549231	14.991813	7.165747	-11.106576	147.050856	3.598158	14.893392	-26.489620	-15.323576
3.854545	-2.709264	-8.918677	102.938379	0.029515	1.032756	0.359893	-4.004857	-2.337828	-9.205316	10.456543	0.182501	28.406430	8.398482	0.000000	-5.754413	1.907690	5.292240	1.183600	0.020658	25.751586	1.454658	0.000000	0.082651	0.122765	-0.742976	0.153492	0.163277	-0.789411	0.135788	0.298490	-0.789411	0.094462	0.298490	-0.650104	0.076750	0.250341	-0.603668	0.047227	0.190162	-0.557232	0.590371	1.388737	-4.132207	0.000000	0.000000	14.076460	1.273986	9.561564	-10.809507	-17.545158	-8.471808	76.597324	81.751560	0.710370	15.854751	7.250571	-11.125609	150.097149	2.959685	16.639862	-26.997428	-13.408454
3.872727	-2.721901	-9.097683	102.461310	0.029964	1.032915	0.361144	-3.548853	-2.509056	-9.137523	10.801933	0.188529	28.342573	8.584157	0.000000	-5.501940	2.034980	4.927500	1.188445	0.020742	25.581453	1.305483	0.000000	0.065824	0.133199	-0.669548	0.122241	0.177154	-0.711395	0.108142	0.323860	-0.711395	0.075230	0.323860	-0.585854	0.061124	0.271619	-0.544008	0.037612	0.206325	-0.502161	0.470173	1.506772	-3.723824	0.000000	0.000000	14.410762	1.043562	8.973366	-10.411492	-17.612747	-7.941787	74.692353	83.146215	0.866112	16.561062	7.317067	-11.149232	152.578559	2.363573	17.884511	-27.556075	-11.869219
3.890909	-2.734686	-9.285247	101.976705	0.030508	1.033007	0.362132	-3.101129	-2.669484	-9.072680	11.142460	0.194473	28.281978	8.750963	0.000000	-5.257084	2.151559	4.619436	1.189635	0.020763	25.405265	1.073259	0.000000	0.049869	0.143832	-0.598037	0.092612	0.191296	-0.635414	0.081930	0.349713	-0.635414	0.056995	0.349713	-0.523282	0.046308	0.293302	-0.485905	0.028495	0.222796	-0.448527	0.356209	1.627056	-3.326100	0.000000	0.000000	14.716271	0.731299	8.264521	-9.920158	-17.683031	-7.326161	72.487480	84.470672	1.008406	17.076095	7.385728	-11.150943	154.752181	1.766371	18.548161	-28.206923	-10.550335
3.909091	-2.742774	-9.476708	101.498194	0.031093	1.033004	0.362883	-2.667034	-2.813549	-8.994993	11.476015	0.200294	28.232276	8.870585	0.000000	-5.022701	2.255040	4.363227	1.188280	0.020739	25.232225	0.772191	0.000000	0.033976	0.155791	-0.525969	0.063097	0.207203	-0.558842	0.055819	0.378791	-0.558842	0.038831	0.378791	-0.460223	0.031550	0.317690	-0.427350	0.019414	0.241321	-0.394477	0.242687	1.762344	-2.925282	0.000000	0.000000	15.008122	0.344070	7.446535	-9.338717	-17.766027	-6.641601	69.995255	85.602291	1.112743	17.369836	7.493824	-11.159938	155.931024	1.331392	18.703521	-28.718713	-9.658025
3.927273	-2.739671	-9.675283	101.045560	0.031696	1.032900	0.363474	-2.244405	-2.931189	-8.889127	11.789268	0.205762	28.180718	8.903445	0.000000	-4.788183	2.337299	4.157711	1.186711	0.020712	25.063866	0.446409	0.000000	0.018546	0.169447	-0.450144	0.034442	0.225365	-0.478278	0.030469	0.411994	-0.478278	0.021196	0.411994	-0.393876	0.017222	0.345537	-0.365742	0.010597	0.262474	-0.337608	0.132472	1.916822	-2.503564	0.000000	0.000000	15.303156	-0.109358	6.521038	-8.680933	-17.862568	-5.942504	67.258137	86.475553	1.174333	17.452028	7.672628	-11.196786	155.867781	1.142272	18.561892	-29.077755	-9.195898
3.945455	-2.721032	-9.880286	100.646490	0.032218	1.032676	0.363879	-1.837840	-3.023501	-8.800183	12.088294	0.210981	28.143148	8.910607	0.000000	-4.560869	2.396119	4.011229	1.171597	0.020448	24.908512	0.105388	0.000000	0.005421	0.185839	-0.376035	0.010067	0.247165	-0.399537	0.008906	0.451848	-0.399537	0.006195	0.451848	-0.329031	0.005034	0.378962	-0.305528	0.003097	0.287864	-0.282026	0.038720	2.102244	-2.091394	0.000000	0.000000	15.588766	-0.573940	5.605619	-8.005718	-17.983022	-5.271320	64.443073	87.161499	1.115570	17.433008	7.864731	-11.175937	155.451183	0.941347	17.906098	-29.423249	-9.065910
3.963636	-2.691717	-10.078935	100.317030	0.032672	1.032399	0.364226	-1.459350	-3.087341	-8.710742	12.360189	0.215726	28.105403	8.849252	0.000000	-4.337236	2.432490	3.924519	1.161905	0.020279	24.756978	-0.229472	0.000000	-0.007446	0.202996	-0.299555	-0.013827	0.269984	-0.318277	-0.012232	0.493564	-0.318277	-0.008510	0.493564	-0.262111	-0.006914	0.413949	-0.243389	-0.004254	0.314440	-0.224666	-0.053183	2.296329	-1.666036	0.000000	0.000000	15.853168	-1.086903	4.551525	-7.323913	-18.108056	-4.664876	61.546436	87.437523	1.068242	17.146096	8.125635	-11.177507	153.724263	0.972433	16.977543	-29.369565	-9.402369
